<svg xmlns="http://www.w3.org/2000/svg" height="48" width="48"><path d="M7.6 32.2Q7.05 32.5 6.55 32.2Q6.05 31.9 6.05 31.3V16.7Q6.05 16.1 6.55 15.8Q7.05 15.5 7.6 15.8L16.3 20.8Q16.6 21 16.75 21.35Q16.9 21.7 16.8 22.05Q16.55 23.05 16.55 24Q16.55 24.95 16.8 25.95Q16.9 26.3 16.775 26.65Q16.65 27 16.3 27.15ZM21.9 43.85 9.3 36.7Q8.75 36.4 8.775 35.775Q8.8 35.15 9.35 34.85L17.95 29.9Q18.25 29.7 18.6 29.775Q18.95 29.85 19.2 30.1Q19.9 30.8 20.75 31.275Q21.6 31.75 22.6 32.05Q22.95 32.15 23.175 32.425Q23.4 32.7 23.45 33.05V42.95Q23.45 43.55 22.95 43.85Q22.45 44.15 21.9 43.85ZM21.8 20.35 9.3 13.15Q8.75 12.85 8.75 12.225Q8.75 11.6 9.25 11.3L21.85 4.1Q22.4 3.8 22.9 4.125Q23.4 4.45 23.4 5.05V19.45Q23.4 20.05 22.875 20.35Q22.35 20.65 21.8 20.35ZM28.1 43.9Q27.55 44.2 27.05 43.875Q26.55 43.55 26.55 42.95V33.1Q26.55 32.7 26.775 32.425Q27 32.15 27.35 32.05Q28.35 31.75 29.2 31.275Q30.05 30.8 30.75 30.1Q31 29.85 31.35 29.775Q31.7 29.7 32 29.9L40.65 34.9Q41.2 35.2 41.225 35.8Q41.25 36.4 40.7 36.7ZM28.1 20.35Q27.55 20.65 27.05 20.35Q26.55 20.05 26.55 19.45V5.05Q26.55 4.45 27.05 4.15Q27.55 3.85 28.1 4.15L40.65 11.3Q41.2 11.6 41.2 12.225Q41.2 12.85 40.65 13.15Z"/></svg>